<svg width="36" height="30" viewBox="0 0 36 30" fill="none" xmlns="http://www.w3.org/2000/svg">
<path d="M36 28.7501C36 29.0816 35.8736 29.3995 35.6485 29.6339C35.4235 29.8683 35.1183 30 34.8 30H1.2C0.88174 30 0.576515 29.8683 0.351472 29.6339C0.126428 29.3995 0 29.0816 0 28.7501C0 28.4186 0.126428 28.1006 0.351472 27.8662C0.576515 27.6318 0.88174 27.5001 1.2 27.5001H34.8C35.1183 27.5001 35.4235 27.6318 35.6485 27.8662C35.8736 28.1006 36 28.4186 36 28.7501ZM1.245 11.5946C1.17349 11.3326 1.18607 11.0535 1.28084 10.7997C1.3756 10.5459 1.54737 10.3312 1.77 10.1884L17.37 0.188891C17.5588 0.0654695 17.7771 0 18 0C18.2229 0 18.4412 0.0654695 18.63 0.188891L34.23 10.1884C34.4517 10.3315 34.6225 10.5459 34.7168 10.7992C34.811 11.0525 34.8235 11.3308 34.7523 11.5921C34.6811 11.8534 34.5301 12.0835 34.3222 12.2474C34.1143 12.4114 33.8608 12.5003 33.6 12.5008H30V22.5004H32.4C32.7183 22.5004 33.0235 22.632 33.2485 22.8664C33.4736 23.1009 33.6 23.4188 33.6 23.7503C33.6 24.0818 33.4736 24.3997 33.2485 24.6341C33.0235 24.8685 32.7183 25.0002 32.4 25.0002H3.6C3.28174 25.0002 2.97652 24.8685 2.75147 24.6341C2.52643 24.3997 2.4 24.0818 2.4 23.7503C2.4 23.4188 2.52643 23.1009 2.75147 22.8664C2.97652 22.632 3.28174 22.5004 3.6 22.5004H6V12.5008H2.4C2.13907 12.5011 1.88516 12.4128 1.67674 12.2493C1.46832 12.0857 1.31676 11.8559 1.245 11.5946ZM20.4 21.2504C20.4 21.5819 20.5264 21.8998 20.7515 22.1343C20.9765 22.3687 21.2817 22.5004 21.6 22.5004C21.9183 22.5004 22.2235 22.3687 22.4485 22.1343C22.6736 21.8998 22.8 21.5819 22.8 21.2504V13.7508C22.8 13.4193 22.6736 13.1013 22.4485 12.8669C22.2235 12.6325 21.9183 12.5008 21.6 12.5008C21.2817 12.5008 20.9765 12.6325 20.7515 12.8669C20.5264 13.1013 20.4 13.4193 20.4 13.7508V21.2504ZM13.2 21.2504C13.2 21.5819 13.3264 21.8998 13.5515 22.1343C13.7765 22.3687 14.0817 22.5004 14.4 22.5004C14.7183 22.5004 15.0235 22.3687 15.2485 22.1343C15.4736 21.8998 15.6 21.5819 15.6 21.2504V13.7508C15.6 13.4193 15.4736 13.1013 15.2485 12.8669C15.0235 12.6325 14.7183 12.5008 14.4 12.5008C14.0817 12.5008 13.7765 12.6325 13.5515 12.8669C13.3264 13.1013 13.2 13.4193 13.2 13.7508V21.2504Z" fill="#181818"/>
</svg>
