<svg width="240" height="47" viewBox="0 0 240 47" fill="none" xmlns="http://www.w3.org/2000/svg">
<path d="M5.08828 37H15.1283C16.915 37 18.4216 36.7733 19.6483 36.32C20.875 35.84 21.8616 35.2267 22.6083 34.48C23.355 33.7333 23.8883 32.8933 24.2083 31.96C24.555 31 24.7283 30.04 24.7283 29.08C24.7283 27.56 24.395 26.3467 23.7283 25.44C23.0883 24.5333 22.315 23.84 21.4083 23.36C20.5016 22.88 19.5683 22.56 18.6083 22.4C17.6483 22.24 16.875 22.1467 16.2883 22.12V21.96C17.2216 21.96 18.1016 21.7867 18.9283 21.44C19.755 21.0667 20.475 20.6 21.0883 20.04C21.7283 19.4533 22.235 18.7867 22.6083 18.04C22.9816 17.2667 23.1683 16.4533 23.1683 15.6C23.1683 14.8533 23.0083 14.0933 22.6883 13.32C22.3683 12.5467 21.875 11.84 21.2083 11.2C20.5683 10.56 19.7283 10.04 18.6883 9.64C17.675 9.21333 16.475 9 15.0883 9H5.08828V37ZM8.72828 35.24V23H13.1283C14.435 23 15.5683 23.1733 16.5283 23.52C17.4883 23.8667 18.275 24.3333 18.8883 24.92C19.5283 25.5067 19.995 26.1867 20.2883 26.96C20.6083 27.7333 20.7683 28.5467 20.7683 29.4C20.7683 30.3333 20.595 31.16 20.2483 31.88C19.9283 32.6 19.4883 33.2133 18.9283 33.72C18.3683 34.2267 17.7016 34.6133 16.9283 34.88C16.1816 35.12 15.3816 35.24 14.5283 35.24H8.72828ZM8.72828 21.24V10.76H13.6083C14.6483 10.76 15.5283 10.9067 16.2483 11.2C16.995 11.4933 17.595 11.88 18.0483 12.36C18.5283 12.84 18.875 13.3867 19.0883 14C19.3016 14.6133 19.4083 15.2267 19.4083 15.84C19.4083 16.6133 19.2483 17.3333 18.9283 18C18.635 18.6667 18.2083 19.24 17.6483 19.72C17.115 20.2 16.4883 20.5733 15.7683 20.84C15.075 21.1067 14.3283 21.24 13.5283 21.24H8.72828ZM54.1336 9V37H57.7736V24.64H59.5336C60.2803 24.64 60.8936 24.7067 61.3736 24.84C61.8803 24.9733 62.3336 25.2 62.7336 25.52C63.1336 25.84 63.5069 26.2533 63.8536 26.76C64.2003 27.2667 64.6136 27.8933 65.0936 28.64L68.2536 33.32C68.6536 33.9333 69.0403 34.4933 69.4136 35C69.8136 35.5067 70.2403 35.9467 70.6936 36.32C71.1469 36.6667 71.6536 36.9467 72.2136 37.16C72.8003 37.3733 73.4936 37.48 74.2936 37.48C74.8803 37.48 75.3603 37.4533 75.7336 37.4C76.1069 37.3467 76.4803 37.2133 76.8536 37V35.52C76.7203 35.5467 76.5869 35.5733 76.4536 35.6C76.3203 35.6 76.1869 35.6 76.0536 35.6C75.4936 35.6 75.0003 35.52 74.5736 35.36C74.1469 35.2 73.7469 34.9733 73.3736 34.68C73.0003 34.36 72.6403 33.9867 72.2936 33.56C71.9469 33.1067 71.5869 32.6 71.2136 32.04C70.0936 30.4133 69.2269 29.12 68.6136 28.16C68.0003 27.1733 67.5069 26.4133 67.1336 25.88C66.7869 25.3467 66.4936 24.96 66.2536 24.72C66.0403 24.48 65.7736 24.28 65.4536 24.12L65.0536 23.92V23.76C66.3336 23.68 67.4269 23.4 68.3336 22.92C69.2669 22.44 70.0269 21.84 70.6136 21.12C71.2003 20.4 71.6269 19.6267 71.8936 18.8C72.1603 17.9467 72.2936 17.12 72.2936 16.32C72.2936 15.6 72.1469 14.8133 71.8536 13.96C71.5869 13.1067 71.1069 12.32 70.4136 11.6C69.7469 10.8533 68.8269 10.24 67.6536 9.76C66.4803 9.25333 65.0003 9 63.2136 9H54.1336ZM57.7736 10.76H61.8136C62.8269 10.76 63.7336 10.9067 64.5336 11.2C65.3603 11.4933 66.0669 11.9067 66.6536 12.44C67.2403 12.9467 67.6803 13.56 67.9736 14.28C68.2936 15 68.4536 15.7867 68.4536 16.64C68.4536 17.36 68.3069 18.0933 68.0136 18.84C67.7469 19.56 67.3336 20.2267 66.7736 20.84C66.2136 21.4267 65.5203 21.9067 64.6936 22.28C63.8936 22.6533 62.9603 22.84 61.8936 22.84H57.7736V10.76ZM121.005 28.76L124.845 37H128.725L115.685 9H113.685L101.845 37H103.685L107.205 28.76H121.005ZM120.165 26.96H107.965L113.725 13.48H113.885L120.165 26.96ZM179.901 9V30.4H179.741L157.541 8.52H157.341V37H159.181V15.6H159.341L181.541 37.48H181.741V9H179.901ZM214.326 37V9H223.526C225.739 9 227.766 9.36 229.606 10.08C231.446 10.7733 233.019 11.7467 234.326 13C235.659 14.2267 236.686 15.6933 237.406 17.4C238.152 19.1067 238.526 20.9467 238.526 22.92C238.526 24.9733 238.139 26.8667 237.366 28.6C236.619 30.3067 235.579 31.7867 234.246 33.04C232.939 34.2933 231.406 35.2667 229.646 35.96C227.886 36.6533 226.006 37 224.006 37H214.326ZM217.966 35.24H222.366C224.552 35.24 226.406 34.88 227.926 34.16C229.472 33.4133 230.739 32.4533 231.726 31.28C232.712 30.1067 233.432 28.8 233.886 27.36C234.339 25.8933 234.566 24.44 234.566 23C234.566 21.4 234.299 19.8667 233.766 18.4C233.232 16.9067 232.446 15.6 231.406 14.48C230.392 13.3333 229.126 12.4267 227.606 11.76C226.086 11.0933 224.339 10.76 222.366 10.76H217.966V35.24Z" fill="#030211"/>
</svg>
