<svg width="38" height="38" viewBox="0 0 38 38" fill="none" xmlns="http://www.w3.org/2000/svg">
<path d="M19 0C15.2422 0 11.5687 1.11433 8.44417 3.20208C5.31964 5.28982 2.88436 8.25722 1.4463 11.729C0.0082324 15.2008 -0.368031 19.0211 0.365088 22.7067C1.09821 26.3924 2.90778 29.7778 5.56498 32.435C8.22218 35.0922 11.6077 36.9018 15.2933 37.6349C18.9789 38.368 22.7992 37.9918 26.271 36.5537C29.7428 35.1156 32.7102 32.6804 34.7979 29.5558C36.8857 26.4313 38 22.7578 38 19C37.9903 13.9639 35.9855 9.13674 32.4244 5.57564C28.8633 2.01454 24.0361 0.00965707 19 0ZM21.1923 27.7692H20.4615V29.2308C20.4615 29.6184 20.3076 29.9901 20.0335 30.2642C19.7594 30.5383 19.3876 30.6923 19 30.6923C18.6124 30.6923 18.2406 30.5383 17.9665 30.2642C17.6924 29.9901 17.5385 29.6184 17.5385 29.2308V27.7692H14.6154C14.2278 27.7692 13.856 27.6152 13.5819 27.3412C13.3078 27.0671 13.1539 26.6953 13.1539 26.3077C13.1539 25.9201 13.3078 25.5483 13.5819 25.2742C13.856 25.0001 14.2278 24.8461 14.6154 24.8461H21.1923C21.7737 24.8461 22.3314 24.6152 22.7425 24.204C23.1536 23.7929 23.3846 23.2353 23.3846 22.6538C23.3846 22.0724 23.1536 21.5148 22.7425 21.1036C22.3314 20.6925 21.7737 20.4615 21.1923 20.4615H16.8077C15.451 20.4615 14.1499 19.9226 13.1906 18.9633C12.2313 18.004 11.6923 16.7028 11.6923 15.3462C11.6923 13.9895 12.2313 12.6883 13.1906 11.729C14.1499 10.7697 15.451 10.2308 16.8077 10.2308H17.5385V8.76923C17.5385 8.38161 17.6924 8.00986 17.9665 7.73577C18.2406 7.46167 18.6124 7.30769 19 7.30769C19.3876 7.30769 19.7594 7.46167 20.0335 7.73577C20.3076 8.00986 20.4615 8.38161 20.4615 8.76923V10.2308H23.3846C23.7722 10.2308 24.144 10.3848 24.4181 10.6588C24.6922 10.9329 24.8462 11.3047 24.8462 11.6923C24.8462 12.0799 24.6922 12.4517 24.4181 12.7258C24.144 12.9999 23.7722 13.1538 23.3846 13.1538H16.8077C16.2263 13.1538 15.6686 13.3848 15.2575 13.796C14.8464 14.2071 14.6154 14.7647 14.6154 15.3462C14.6154 15.9276 14.8464 16.4852 15.2575 16.8963C15.6686 17.3075 16.2263 17.5385 16.8077 17.5385H21.1923C22.549 17.5385 23.8501 18.0774 24.8094 19.0367C25.7688 19.996 26.3077 21.2972 26.3077 22.6538C26.3077 24.0105 25.7688 25.3116 24.8094 26.271C23.8501 27.2303 22.549 27.7692 21.1923 27.7692Z" fill="#181818"/>
</svg>
