<svg width="34" height="26" viewBox="0 0 34 26" fill="none" xmlns="http://www.w3.org/2000/svg">
<path d="M32.6923 0H1.30769C0.960871 0 0.628254 0.136964 0.383014 0.380761C0.137774 0.624559 0 0.955218 0 1.3V23.4C0 24.0896 0.275549 24.7509 0.766028 25.2385C1.25651 25.7261 1.92174 26 2.61538 26H31.3846C32.0783 26 32.7435 25.7261 33.234 25.2385C33.7244 24.7509 34 24.0896 34 23.4V1.3C34 0.955218 33.8622 0.624559 33.617 0.380761C33.3717 0.136964 33.0391 0 32.6923 0ZM2.61538 10.4H9.15385V15.6H2.61538V10.4ZM11.7692 10.4H31.3846V15.6H11.7692V10.4ZM2.61538 18.2H9.15385V23.4H2.61538V18.2ZM31.3846 23.4H11.7692V18.2H31.3846V23.4Z" fill="#181818"/>
</svg>
