<svg width="247" height="53" viewBox="0 0 247 53" fill="none" xmlns="http://www.w3.org/2000/svg">
<ellipse cx="123.029" cy="26.3126" rx="123.029" ry="26.3126" fill="#030211"/>
<path d="M58.6376 19.5695V20.9755H52.8806V25.4405H57.5546V26.8465H52.8806V32.8125H51.1516V19.5695H58.6376ZM77.4648 32.9455C76.2361 32.9455 75.1151 32.6605 74.1018 32.0905C73.0884 31.5078 72.2841 30.7035 71.6888 29.6775C71.1061 28.6388 70.8148 27.4735 70.8148 26.1815C70.8148 24.8895 71.1061 23.7305 71.6888 22.7045C72.2841 21.6658 73.0884 20.8615 74.1018 20.2915C75.1151 19.7088 76.2361 19.4175 77.4648 19.4175C78.7061 19.4175 79.8334 19.7088 80.8468 20.2915C81.8601 20.8615 82.6581 21.6595 83.2408 22.6855C83.8234 23.7115 84.1148 24.8768 84.1148 26.1815C84.1148 27.4862 83.8234 28.6515 83.2408 29.6775C82.6581 30.7035 81.8601 31.5078 80.8468 32.0905C79.8334 32.6605 78.7061 32.9455 77.4648 32.9455ZM77.4648 31.4445C78.3894 31.4445 79.2191 31.2292 79.9538 30.7985C80.7011 30.3678 81.2838 29.7535 81.7018 28.9555C82.1324 28.1575 82.3478 27.2328 82.3478 26.1815C82.3478 25.1175 82.1324 24.1928 81.7018 23.4075C81.2838 22.6095 80.7074 21.9952 79.9728 21.5645C79.2381 21.1338 78.4021 20.9185 77.4648 20.9185C76.5274 20.9185 75.6914 21.1338 74.9568 21.5645C74.2221 21.9952 73.6394 22.6095 73.2088 23.4075C72.7908 24.1928 72.5818 25.1175 72.5818 26.1815C72.5818 27.2328 72.7908 28.1575 73.2088 28.9555C73.6394 29.7535 74.2221 30.3678 74.9568 30.7985C75.7041 31.2292 76.5401 31.4445 77.4648 31.4445ZM104.105 32.8125L100.951 27.3975H98.8613V32.8125H97.1323V19.5695H101.407C102.408 19.5695 103.25 19.7405 103.934 20.0825C104.631 20.4245 105.15 20.8868 105.492 21.4695C105.834 22.0522 106.005 22.7172 106.005 23.4645C106.005 24.3765 105.739 25.1808 105.207 25.8775C104.688 26.5742 103.903 27.0365 102.851 27.2645L106.176 32.8125H104.105ZM98.8613 26.0105H101.407C102.345 26.0105 103.048 25.7825 103.516 25.3265C103.985 24.8578 104.219 24.2372 104.219 23.4645C104.219 22.6792 103.985 22.0712 103.516 21.6405C103.06 21.2098 102.357 20.9945 101.407 20.9945H98.8613V26.0105ZM127.578 19.5695V20.9755H123.968V32.8125H122.239V20.9755H118.61V19.5695H127.578ZM142.132 19.5695V27.9485C142.132 29.1265 142.417 30.0005 142.987 30.5705C143.57 31.1405 144.374 31.4255 145.4 31.4255C146.413 31.4255 147.205 31.1405 147.775 30.5705C148.358 30.0005 148.649 29.1265 148.649 27.9485V19.5695H150.378V27.9295C150.378 29.0315 150.156 29.9625 149.713 30.7225C149.27 31.4698 148.668 32.0272 147.908 32.3945C147.161 32.7618 146.318 32.9455 145.381 32.9455C144.444 32.9455 143.595 32.7618 142.835 32.3945C142.088 32.0272 141.492 31.4698 141.049 30.7225C140.618 29.9625 140.403 29.0315 140.403 27.9295V19.5695H142.132ZM174.409 32.8125H172.68L165.726 22.2675V32.8125H163.997V19.5505H165.726L172.68 30.0765V19.5505H174.409V32.8125ZM189.821 20.9755V25.4025H194.647V26.8275H189.821V31.3875H195.217V32.8125H188.092V19.5505H195.217V20.9755H189.821Z" fill="white"/>
</svg>
