<svg width="186" height="48" viewBox="0 0 186 48" fill="none" xmlns="http://www.w3.org/2000/svg">
<path d="M62.3623 12.3359V16.1934C62.3623 17.0267 62.4535 17.5443 62.6357 17.7461C62.8831 18.0326 63.2575 18.1758 63.7588 18.1758H64.2666V18.5371H58.5928V18.1758H59.0908C59.6507 18.1758 60.0511 17.9935 60.292 17.6289C60.4222 17.4271 60.4873 16.9486 60.4873 16.1934V7.63867C60.4873 6.80534 60.3994 6.28776 60.2236 6.08594C59.9697 5.79948 59.5921 5.65625 59.0908 5.65625H58.5928V5.29492H63.4463C64.6312 5.29492 65.5654 5.41862 66.249 5.66602C66.9326 5.9069 67.5088 6.31706 67.9775 6.89648C68.4463 7.47591 68.6807 8.16276 68.6807 8.95703C68.6807 10.0378 68.3226 10.9167 67.6064 11.5938C66.8968 12.2708 65.891 12.6094 64.5889 12.6094C64.2699 12.6094 63.9248 12.5866 63.5537 12.541C63.1826 12.4954 62.7855 12.4271 62.3623 12.3359ZM62.3623 11.7793C62.7074 11.8444 63.0133 11.8932 63.2803 11.9258C63.5472 11.9583 63.7751 11.9746 63.9639 11.9746C64.641 11.9746 65.2236 11.7142 65.7119 11.1934C66.2067 10.666 66.4541 9.98568 66.4541 9.15234C66.4541 8.57943 66.3369 8.04883 66.1025 7.56055C65.8682 7.06576 65.5361 6.69792 65.1064 6.45703C64.6768 6.20964 64.1885 6.08594 63.6416 6.08594C63.3096 6.08594 62.8831 6.14779 62.3623 6.27148V11.7793ZM88.008 4.99219C89.7268 4.99219 91.2144 5.64648 92.4709 6.95508C93.7339 8.25716 94.3654 9.88477 94.3654 11.8379C94.3654 13.8496 93.7307 15.5195 92.4611 16.8477C91.1916 18.1758 89.6551 18.8398 87.8518 18.8398C86.0288 18.8398 84.4956 18.1921 83.2521 16.8965C82.0152 15.6009 81.3967 13.9245 81.3967 11.8672C81.3967 9.76432 82.1128 8.04883 83.5451 6.7207C84.7886 5.56836 86.2762 4.99219 88.008 4.99219ZM87.8225 5.70508C86.6376 5.70508 85.687 6.14453 84.9709 7.02344C84.079 8.11719 83.633 9.71875 83.633 11.8281C83.633 13.9896 84.0952 15.653 85.0197 16.8184C85.7294 17.7038 86.6669 18.1465 87.8322 18.1465C89.0757 18.1465 90.1011 17.6615 90.9084 16.6914C91.7222 15.7214 92.1291 14.1914 92.1291 12.1016C92.1291 9.83594 91.6831 8.14648 90.7912 7.0332C90.0751 6.14779 89.0855 5.70508 87.8225 5.70508ZM112.619 18.1758V18.5371H106.945V18.1758H107.413C107.96 18.1758 108.357 18.0163 108.605 17.6973C108.761 17.4889 108.839 16.9876 108.839 16.1934V7.63867C108.839 6.9681 108.797 6.52539 108.712 6.31055C108.647 6.14779 108.514 6.00781 108.312 5.89062C108.025 5.73438 107.726 5.65625 107.413 5.65625H106.945V5.29492H112.619V5.65625H112.14C111.6 5.65625 111.206 5.81576 110.958 6.13477C110.796 6.3431 110.714 6.8444 110.714 7.63867V16.1934C110.714 16.8639 110.757 17.3066 110.841 17.5215C110.906 17.6842 111.043 17.8242 111.251 17.9414C111.531 18.0977 111.828 18.1758 112.14 18.1758H112.619ZM124.143 5.29492H127.737L135.833 15.2266V7.58984C135.833 6.77604 135.741 6.26823 135.559 6.06641C135.318 5.79297 134.937 5.65625 134.417 5.65625H133.958V5.29492H138.567V5.65625H138.098C137.538 5.65625 137.141 5.82552 136.907 6.16406C136.764 6.3724 136.692 6.84766 136.692 7.58984V18.752H136.34L127.61 8.08789V16.2422C127.61 17.056 127.698 17.5638 127.874 17.7656C128.121 18.0391 128.502 18.1758 129.016 18.1758H129.485V18.5371H124.876V18.1758H125.335C125.901 18.1758 126.301 18.0065 126.536 17.668C126.679 17.4596 126.751 16.9844 126.751 16.2422V7.0332C126.366 6.58398 126.074 6.28776 125.872 6.14453C125.676 6.0013 125.387 5.86784 125.003 5.74414C124.814 5.68555 124.527 5.65625 124.143 5.65625V5.29492ZM161.732 5.29492L161.879 8.40039H161.508C161.436 7.85352 161.338 7.46289 161.215 7.22852C161.013 6.85091 160.743 6.57422 160.404 6.39844C160.072 6.21615 159.633 6.125 159.086 6.125H157.221V16.2422C157.221 17.056 157.308 17.5638 157.484 17.7656C157.732 18.0391 158.112 18.1758 158.627 18.1758H159.086V18.5371H153.471V18.1758H153.939C154.499 18.1758 154.896 18.0065 155.131 17.668C155.274 17.4596 155.346 16.9844 155.346 16.2422V6.125H153.754C153.135 6.125 152.696 6.17057 152.435 6.26172C152.097 6.38542 151.807 6.62305 151.566 6.97461C151.325 7.32617 151.182 7.80143 151.137 8.40039H150.765L150.922 5.29492H161.732ZM182.856 4.99219V9.57227H182.495C182.378 8.69336 182.166 7.99349 181.86 7.47266C181.561 6.95182 181.131 6.53841 180.571 6.23242C180.011 5.92643 179.432 5.77344 178.833 5.77344C178.156 5.77344 177.596 5.98177 177.153 6.39844C176.711 6.80859 176.489 7.27734 176.489 7.80469C176.489 8.20833 176.629 8.57617 176.909 8.9082C177.313 9.39648 178.273 10.0475 179.79 10.8613C181.027 11.5254 181.87 12.0365 182.319 12.3945C182.775 12.7461 183.123 13.1628 183.364 13.6445C183.612 14.1263 183.735 14.6309 183.735 15.1582C183.735 16.1608 183.345 17.0267 182.563 17.7559C181.789 18.4785 180.789 18.8398 179.565 18.8398C179.181 18.8398 178.82 18.8105 178.481 18.752C178.28 18.7194 177.86 18.6022 177.222 18.4004C176.59 18.1921 176.19 18.0879 176.021 18.0879C175.858 18.0879 175.728 18.1367 175.63 18.2344C175.539 18.332 175.47 18.5339 175.425 18.8398H175.063V14.2988H175.425C175.594 15.2493 175.822 15.9622 176.108 16.4375C176.395 16.9062 176.831 17.2969 177.417 17.6094C178.009 17.9219 178.657 18.0781 179.36 18.0781C180.174 18.0781 180.815 17.8633 181.284 17.4336C181.759 17.0039 181.997 16.4961 181.997 15.9102C181.997 15.5846 181.906 15.2559 181.724 14.9238C181.548 14.5918 181.271 14.2826 180.894 13.9961C180.64 13.8008 179.946 13.3874 178.813 12.7559C177.681 12.1178 176.873 11.61 176.392 11.2324C175.916 10.8548 175.555 10.4382 175.308 9.98242C175.06 9.52669 174.937 9.02539 174.937 8.47852C174.937 7.52799 175.301 6.71094 176.03 6.02734C176.759 5.33724 177.687 4.99219 178.813 4.99219C179.517 4.99219 180.262 5.16471 181.05 5.50977C181.414 5.67253 181.672 5.75391 181.821 5.75391C181.991 5.75391 182.127 5.70508 182.231 5.60742C182.342 5.50326 182.43 5.29818 182.495 4.99219H182.856ZM65.5752 27.9922C67.2939 27.9922 68.7816 28.6465 70.0381 29.9551C71.3011 31.2572 71.9326 32.8848 71.9326 34.8379C71.9326 36.8496 71.2979 38.5195 70.0283 39.8477C68.7588 41.1758 67.2223 41.8398 65.4189 41.8398C63.596 41.8398 62.0628 41.1921 60.8193 39.8965C59.5824 38.6009 58.9639 36.9245 58.9639 34.8672C58.9639 32.7643 59.68 31.0488 61.1123 29.7207C62.3558 28.5684 63.8434 27.9922 65.5752 27.9922ZM65.3896 28.7051C64.2048 28.7051 63.2542 29.1445 62.5381 30.0234C61.6462 31.1172 61.2002 32.7188 61.2002 34.8281C61.2002 36.9896 61.6624 38.653 62.5869 39.8184C63.2965 40.7038 64.234 41.1465 65.3994 41.1465C66.6429 41.1465 67.6683 40.6615 68.4756 39.6914C69.2894 38.7214 69.6963 37.1914 69.6963 35.1016C69.6963 32.8359 69.2503 31.1465 68.3584 30.0332C67.6423 29.1478 66.6527 28.7051 65.3896 28.7051ZM83.7502 28.2949H87.3439L95.4396 38.2266V30.5898C95.4396 29.776 95.3485 29.2682 95.1662 29.0664C94.9253 28.793 94.5445 28.6562 94.0236 28.6562H93.5646V28.2949H98.174V28.6562H97.7053C97.1454 28.6562 96.7482 28.8255 96.5139 29.1641C96.3706 29.3724 96.299 29.8477 96.299 30.5898V41.752H95.9475L87.217 31.0879V39.2422C87.217 40.056 87.3049 40.5638 87.4807 40.7656C87.7281 41.0391 88.1089 41.1758 88.6232 41.1758H89.092V41.5371H84.4826V41.1758H84.9416C85.508 41.1758 85.9084 41.0065 86.1428 40.668C86.286 40.4596 86.3576 39.9844 86.3576 39.2422V30.0332C85.9735 29.584 85.6805 29.2878 85.4787 29.1445C85.2834 29.0013 84.9937 28.8678 84.6096 28.7441C84.4208 28.6855 84.1343 28.6562 83.7502 28.6562V28.2949ZM113.947 29.0176V34.252H116.857C117.612 34.252 118.117 34.138 118.371 33.9102C118.709 33.6107 118.898 33.0833 118.937 32.3281H119.298V36.9375H118.937C118.846 36.293 118.755 35.8796 118.663 35.6973C118.546 35.4694 118.354 35.2904 118.087 35.1602C117.82 35.0299 117.41 34.9648 116.857 34.9648H113.947V39.3301C113.947 39.916 113.973 40.2741 114.025 40.4043C114.077 40.528 114.168 40.6289 114.298 40.707C114.428 40.7786 114.676 40.8145 115.04 40.8145H117.287C118.035 40.8145 118.579 40.7624 118.917 40.6582C119.256 40.554 119.581 40.349 119.894 40.043C120.298 39.6393 120.711 39.0306 121.134 38.2168H121.525L120.382 41.5371H110.177V41.1758H110.646C110.958 41.1758 111.255 41.1009 111.535 40.9512C111.743 40.847 111.883 40.6908 111.954 40.4824C112.033 40.2741 112.072 39.8477 112.072 39.2031V30.5996C112.072 29.7598 111.987 29.2422 111.818 29.0469C111.583 28.7865 111.193 28.6562 110.646 28.6562H110.177V28.2949H120.382L120.529 31.1953H120.148C120.011 30.4987 119.858 30.0202 119.689 29.7598C119.526 29.4993 119.282 29.3008 118.956 29.1641C118.696 29.0664 118.237 29.0176 117.579 29.0176H113.947Z" fill="#030211"/>
<path d="M41.667 13.3008L43.665 35.2197L23.6836 44.4482L3.70215 35.2197L5.7002 13.3018L23.6846 0.611328L41.667 13.3008Z" stroke="#030211"/>
<path d="M38.3037 15.2451L39.9277 33.0635L23.6836 40.5654L7.43945 33.0635L9.06445 15.2441L23.6836 4.92773L38.3037 15.2451Z" stroke="#030211"/>
<path d="M34.9902 17.1562L36.2461 30.9355L23.6846 36.7373L11.1221 30.9355L12.3779 17.1562L23.6846 9.17773L34.9902 17.1562Z" stroke="#030211"/>
<path d="M31.3145 19.2783L32.1621 28.5791L23.6846 32.4941L15.2061 28.5791L16.0537 19.2793L23.6846 13.8945L31.3145 19.2783Z" stroke="#030211"/>
<rect x="126.865" y="28.4316" width="57.5341" height="2.17102" fill="#030211"/>
<rect x="126.865" y="33.498" width="57.5341" height="2.17102" fill="#030211"/>
<rect x="126.865" y="38.6855" width="57.5341" height="2.17102" fill="#030211"/>
</svg>
