<svg width="53" height="53" viewBox="0 0 53 53" fill="none" xmlns="http://www.w3.org/2000/svg">
<circle cx="26.1658" cy="26.1658" r="26.1658" fill="#EAEAEA"/>
<path d="M25.7503 27.1319C27.7892 27.1319 29.4421 25.4791 29.4421 23.4402C29.4421 21.4013 27.7892 19.7484 25.7503 19.7484C23.7114 19.7484 22.0586 21.4013 22.0586 23.4402C22.0586 25.4791 23.7114 27.1319 25.7503 27.1319Z" stroke="#181818" stroke-width="2" stroke-linecap="round" stroke-linejoin="round"/>
<path d="M34.9783 23.4402C34.9783 31.7466 25.7489 38.2072 25.7489 38.2072C25.7489 38.2072 16.5195 31.7466 16.5195 23.4402C16.5195 20.9924 17.4919 18.6449 19.2228 16.914C20.9536 15.1832 23.3011 14.2108 25.7489 14.2108C28.1967 14.2108 30.5442 15.1832 32.2751 16.914C34.0059 18.6449 34.9783 20.9924 34.9783 23.4402V23.4402Z" stroke="#181818" stroke-width="2" stroke-linecap="round" stroke-linejoin="round"/>
</svg>
