<svg width="87" height="39" viewBox="0 0 87 39" fill="none" xmlns="http://www.w3.org/2000/svg">
<path d="M12.6478 -3.75509e-05H16.5538V38.564H11.9038L3.90584 8.67996V38.564H-0.000156038V-3.75509e-05H4.95984L12.6478 28.83V-3.75509e-05ZM31.2449 29.822V5.57996C31.2449 4.7533 31.1209 4.23663 30.8729 4.02996C30.6663 3.78196 30.1496 3.65796 29.3229 3.65796H27.2149V-3.75509e-05H30.5629C32.2163 -3.75509e-05 33.4356 0.413295 34.2209 1.23996C35.0476 2.0253 35.4609 3.24463 35.4609 4.89796V29.822H31.2449ZM31.2449 32.984V26.722H35.4609V33.666C35.4609 35.3193 35.0476 36.5593 34.2209 37.386C33.4356 38.1713 32.2163 38.564 30.5629 38.564H26.7809V34.906H29.3229C30.1496 34.906 30.6663 34.782 30.8729 34.534C31.1209 34.286 31.2449 33.7693 31.2449 32.984ZM23.5569 5.57996V29.884H19.3409V4.89796C19.3409 3.24463 19.7336 2.0253 20.5189 1.23996C21.3456 0.413295 22.5856 -3.75509e-05 24.2389 -3.75509e-05H27.5869V3.65796H25.4789C24.6936 3.65796 24.1769 3.78196 23.9289 4.02996C23.6809 4.23663 23.5569 4.7533 23.5569 5.57996ZM23.5569 26.226V32.984C23.5569 33.7693 23.6809 34.286 23.9289 34.534C24.1769 34.782 24.6936 34.906 25.4789 34.906H27.4009V38.564H24.2389C22.5856 38.564 21.3456 38.1713 20.5189 37.386C19.7336 36.5593 19.3409 35.3193 19.3409 33.666V26.226H23.5569ZM50.1767 16.864V5.57996C50.1767 4.7533 50.0527 4.23663 49.8047 4.02996C49.5981 3.78196 49.0814 3.65796 48.2547 3.65796H38.2727V-3.75509e-05H49.4947C51.1481 -3.75509e-05 52.3674 0.413295 53.1527 1.23996C53.9794 2.0253 54.3927 3.24463 54.3927 4.89796V17.546C54.3927 19.1993 53.9794 20.4393 53.1527 21.266C52.3674 22.0513 51.1481 22.444 49.4947 22.444H40.8147V18.786H48.2547C49.0814 18.786 49.5981 18.662 49.8047 18.414C50.0527 18.166 50.1767 17.6493 50.1767 16.864ZM38.2727 -3.75509e-05H42.4887V38.564H38.2727V-3.75509e-05ZM45.5887 20.832H49.9907L56.3767 38.564H51.7887L45.5887 20.832ZM60.2367 -3.75509e-05H64.4527V38.564H60.2367V-3.75509e-05ZM70.6527 -3.75509e-05V3.65796H54.0367V-3.75509e-05H70.6527ZM82.2666 29.822V5.57996C82.2666 4.7533 82.1426 4.23663 81.8946 4.02996C81.6879 3.78196 81.1712 3.65796 80.3446 3.65796H78.2366V-3.75509e-05H81.5846C83.2379 -3.75509e-05 84.4572 0.413295 85.2426 1.23996C86.0692 2.0253 86.4826 3.24463 86.4826 4.89796V29.822H82.2666ZM82.2666 32.984V26.722H86.4826V33.666C86.4826 35.3193 86.0692 36.5593 85.2426 37.386C84.4572 38.1713 83.2379 38.564 81.5846 38.564H77.8026V34.906H80.3446C81.1712 34.906 81.6879 34.782 81.8946 34.534C82.1426 34.286 82.2666 33.7693 82.2666 32.984ZM74.5786 5.57996V29.884H70.3626V4.89796C70.3626 3.24463 70.7552 2.0253 71.5406 1.23996C72.3672 0.413295 73.6072 -3.75509e-05 75.2606 -3.75509e-05H78.6086V3.65796H76.5006C75.7152 3.65796 75.1986 3.78196 74.9506 4.02996C74.7026 4.23663 74.5786 4.7533 74.5786 5.57996ZM74.5786 26.226V32.984C74.5786 33.7693 74.7026 34.286 74.9506 34.534C75.1986 34.782 75.7152 34.906 76.5006 34.906H78.4226V38.564H75.2606C73.6072 38.564 72.3672 38.1713 71.5406 37.386C70.7552 36.5593 70.3626 35.3193 70.3626 33.666V26.226H74.5786Z" fill="#030211"/>
</svg>
