<svg width="30" height="29" viewBox="0 0 30 29" fill="none" xmlns="http://www.w3.org/2000/svg">
<path d="M26.9634 21.4506C28.4964 21.4506 29.7392 20.2078 29.7392 18.6748V2.77577C29.7392 1.24276 28.4964 2.24857e-06 26.9634 2.11455e-06L2.77577 0C1.24276 -1.34021e-07 3.28691e-06 1.24275 1.38994e-06 2.77577L0 18.6748C-1.34021e-07 20.2078 1.24275 21.4506 2.77577 21.4506H14.1017C14.1053 21.4543 14.109 21.458 14.1127 21.4617L21.2846 28.6337C21.8675 29.2165 22.8641 28.8037 22.8641 27.9794V21.4506H26.9634Z" fill="#FFCC4A"/>
<rect x="7.56934" y="13.6333" width="13.8699" height="1.55035" rx="0.775175" fill="#1B1B1B"/>
<rect x="7.56934" y="9.63916" width="13.8699" height="1.55035" rx="0.775175" fill="#1B1B1B"/>
<rect x="7.56934" y="6.05859" width="13.8699" height="1.55035" rx="0.775175" fill="#1B1B1B"/>
</svg>
