<svg width="12" height="11" viewBox="0 0 12 11" fill="none" xmlns="http://www.w3.org/2000/svg">
<path d="M9.95512 3.03963C9.73286 3.03963 9.5156 2.97621 9.33081 2.85739C9.14601 2.73857 9.00198 2.56969 8.91693 2.3721C8.83187 2.17451 8.80962 1.95709 8.85298 1.74733C8.89634 1.53757 9.00336 1.3449 9.16052 1.19367C9.31768 1.04244 9.51791 0.939455 9.73589 0.897731C9.95387 0.856008 10.1798 0.877422 10.3852 0.959266C10.5905 1.04111 10.766 1.17971 10.8895 1.35753C11.0129 1.53536 11.0788 1.74442 11.0788 1.95829C11.0792 2.10038 11.0503 2.24113 10.994 2.37246C10.9376 2.5038 10.8548 2.62312 10.7504 2.7236C10.646 2.82407 10.522 2.90371 10.3855 2.95794C10.249 3.01218 10.1028 3.03994 9.95512 3.03963ZM5.08575 3.76027C5.67845 3.76027 6.25784 3.92939 6.75065 4.24626C7.24347 4.56312 7.62757 5.0135 7.85439 5.54042C8.0812 6.06735 8.14055 6.64717 8.02492 7.20655C7.90929 7.76593 7.62387 8.27976 7.20477 8.68305C6.78567 9.08634 6.2517 9.36099 5.67039 9.47226C5.08907 9.58353 4.48653 9.52642 3.93894 9.30816C3.39136 9.0899 2.92333 8.72029 2.59404 8.24607C2.26475 7.77184 2.089 7.21431 2.089 6.64397C2.08985 5.87941 2.40585 5.14641 2.96766 4.60579C3.52948 4.06517 4.29122 3.76109 5.08575 3.76027ZM5.08575 2.31861C4.19674 2.31861 3.32769 2.57229 2.5885 3.04756C1.84931 3.52284 1.27319 4.19837 0.932978 4.98872C0.592768 5.77908 0.503753 6.64877 0.677191 7.4878C0.850629 8.32684 1.27873 9.09754 1.90736 9.70246C2.53598 10.3074 3.3369 10.7193 4.20883 10.8862C5.08076 11.0531 5.98454 10.9675 6.80588 10.6401C7.62722 10.3127 8.32923 9.75831 8.82314 9.04701C9.31705 8.33571 9.58068 7.49944 9.58068 6.64397C9.58068 5.49681 9.1071 4.39664 8.26414 3.58548C7.42118 2.77432 6.27788 2.31861 5.08575 2.31861Z" fill="white"/>
</svg>
