<svg width="19" height="19" viewBox="0 0 19 19" fill="none" xmlns="http://www.w3.org/2000/svg">
<path d="M17.2778 0.620117H2.21724C1.3943 0.620117 0.675293 1.21224 0.675293 2.02551V17.1195C0.675293 17.9372 1.3943 18.6659 2.21724 18.6659H17.2734C18.1007 18.6659 18.7211 17.9324 18.7211 17.1195V2.02551C18.7259 1.21224 18.1007 0.620117 17.2778 0.620117ZM6.26908 15.6622H3.68386V7.62413H6.26908V15.6622ZM5.06589 6.40201H5.04736C4.22 6.40201 3.68426 5.78612 3.68426 5.01515C3.68426 4.23008 4.2341 3.62869 5.07999 3.62869C5.92589 3.62869 6.44349 4.22565 6.46202 5.01515C6.46162 5.78612 5.92589 6.40201 5.06589 6.40201ZM15.7173 15.6622H13.1321V11.2671C13.1321 10.2142 12.7559 9.49477 11.8206 9.49477C11.106 9.49477 10.683 9.97814 10.4949 10.449C10.4244 10.6182 10.4055 10.8486 10.4055 11.0838V15.6622H7.82029V7.62413H10.4055V8.74273C10.7817 8.20699 11.3694 7.43602 12.737 7.43602C14.434 7.43602 15.7177 8.55462 15.7177 10.9662L15.7173 15.6622Z" fill="white"/>
</svg>
