<svg width="21" height="17" viewBox="0 0 21 17" fill="none" xmlns="http://www.w3.org/2000/svg">
<path d="M20.6755 2.57841C19.9296 2.90229 19.1404 3.11566 18.3328 3.2118C19.1815 2.71518 19.8198 1.92623 20.1278 0.992893C19.3254 1.46176 18.449 1.79073 17.5362 1.96573C17.1518 1.56315 16.6894 1.24289 16.1773 1.02441C15.6652 0.805936 15.114 0.693803 14.5571 0.694831C12.3027 0.694831 10.4782 2.49148 10.4782 4.70624C10.4766 5.01431 10.512 5.32146 10.5835 5.62113C8.96685 5.54539 7.38386 5.13329 5.93576 4.41118C4.48766 3.68908 3.20634 2.67287 2.17378 1.42757C1.81153 2.03781 1.61995 2.73409 1.61907 3.44362C1.61907 4.83457 2.34528 6.06408 3.44186 6.78439C2.79217 6.76899 2.15579 6.59715 1.58675 6.28348V6.33316C1.58675 8.27884 2.99527 9.89748 4.85949 10.2659C4.50893 10.3593 4.14768 10.4066 3.78487 10.4067C3.52744 10.4071 3.27059 10.3822 3.01806 10.3322C3.53631 11.926 5.04467 13.0851 6.83142 13.1182C5.37956 14.2363 3.59705 14.8406 1.76406 14.8362C1.4387 14.8357 1.11364 14.8164 0.790527 14.7782C2.65523 15.9681 4.8228 16.5975 7.03524 16.5914C14.5484 16.5914 18.653 10.477 18.653 5.17403C18.653 5.00016 18.6485 4.82629 18.6402 4.65657C19.4369 4.09027 20.1261 3.38654 20.6755 2.57841Z" fill="white"/>
</svg>
