<svg width="19" height="18" viewBox="0 0 19 18" fill="none" xmlns="http://www.w3.org/2000/svg">
<path d="M12.8312 1.43433C13.8238 1.43719 14.7749 1.81788 15.4768 2.49328C16.1786 3.16868 16.5743 4.0839 16.5772 5.03905V12.2477C16.5743 13.2029 16.1786 14.1181 15.4768 14.7935C14.7749 15.4689 13.8238 15.8496 12.8312 15.8524H5.33992C4.34732 15.8496 3.39622 15.4689 2.69434 14.7935C1.99247 14.1181 1.59684 13.2029 1.59388 12.2477V5.03905C1.59684 4.0839 1.99247 3.16868 2.69434 2.49328C3.39622 1.81788 4.34732 1.43719 5.33992 1.43433H12.8312ZM12.8312 -0.00732422H5.33992C2.45554 -0.00732422 0.0957031 2.26349 0.0957031 5.03905V12.2477C0.0957031 15.0233 2.45554 17.2941 5.33992 17.2941H12.8312C15.7156 17.2941 18.0754 15.0233 18.0754 12.2477V5.03905C18.0754 2.26349 15.7156 -0.00732422 12.8312 -0.00732422Z" fill="white"/>
</svg>
